<?xml version="1.0" encoding="UTF-8"?>
<svg xmlns="http://www.w3.org/2000/svg" viewBox="0 0 450 140" width="900" height="280" role="img" aria-label="Scoute">
  <defs>
    <clipPath id="eClip">
      <text x="172" y="85"
            font-family="'Plus Jakarta Sans', ui-sans-serif"
            font-weight="800" font-style="italic" font-size="80"
            letter-spacing="-2.4">e</text>
    </clipPath>
  </defs>
  <g transform="translate(18 0) skewX(-12)">
    <text x="0" y="85"
          font-family="'Plus Jakarta Sans', ui-sans-serif"
          font-weight="800" font-style="italic" font-size="80"
          letter-spacing="-2.4">
      <tspan fill="#0B0F1A" textLength="172" lengthAdjust="spacingAndGlyphs">scout</tspan><tspan fill="#1B4DFF">e</tspan>
    </text>
    <g clip-path="url(#eClip)" stroke="#FFFFFF" fill="none">
      <ellipse cx="216" cy="60" rx="26" ry="34" stroke-opacity=".35" stroke-width="1"/>
      <ellipse cx="216" cy="60" rx="18" ry="34" stroke-opacity=".35" stroke-width="1"/>
      <ellipse cx="216" cy="60" rx="9"  ry="34" stroke-opacity=".35" stroke-width="1"/>
      <line x1="216" y1="24" x2="216" y2="96" stroke-opacity=".55" stroke-width="1.1"/>
      <line x1="184" y1="42" x2="248" y2="42" stroke-opacity=".35" stroke-width="1"/>
      <line x1="180" y1="60" x2="252" y2="60" stroke-opacity=".75" stroke-width="1.4"/>
      <line x1="184" y1="78" x2="248" y2="78" stroke-opacity=".35" stroke-width="1"/>
      <path d="M 200 48 Q 208 44 215 50 Q 215 58 207 58 Q 198 56 200 48 Z" fill="#FFFFFF" opacity=".85"/>
      <path d="M 224 70 Q 232 68 234 74 Q 232 80 226 78 Q 222 75 224 70 Z" fill="#FFFFFF" opacity=".85"/>
    </g>
    <g clip-path="url(#eClip)">
      <g transform="rotate(45 216 60)">
        <ellipse cx="216" cy="60" rx="22" ry="33" fill="none" stroke="#FF6B1B" stroke-opacity=".95" stroke-width="1.7"/>
      </g>
    </g>
    <g transform="rotate(45 216 60)">
      <circle cx="238" cy="60" r="3.6" fill="#FF6B1B"/>
      <circle cx="194" cy="60" r="3" fill="#1B4DFF"/>
    </g>
  </g>
</svg>
